<?xml version="1.0" encoding="UTF-8"?> <svg xmlns="http://www.w3.org/2000/svg" viewBox="0 0 1021.3 156.14"><defs><style>.cls-1{fill:#fff;}</style></defs><g id="Layer_2" data-name="Layer 2"><g id="Layer_1-2" data-name="Layer 1"><path class="cls-1" d="M0,36.3c10,0,19.76-.12,29.54,0,12.29.19,24.69-.26,36.85,1.18C78.93,39,89.06,45.28,93,58.3c3.69,12.18-.33,23.6-10.57,31.24l-3.57,2.69c3.53,2,6.72,3.59,9.66,5.55,17.88,11.87,16.46,39.37-2.45,49.69-8.1,4.43-16.78,6.15-25.86,6.19-19.14.1-38.29.09-57.43.1A23.27,23.27,0,0,1,0,153.38Zm38.57,68.44V84.67c6.89-.52,13.53-.58,20-1.62C65.4,82,69,77.45,68.9,71.63c-.11-7.32-3.25-11.75-10.75-12.52-9.37-1-18.87-.66-28.3-1.15-4-.21-5.54,1-5.5,5.24q.28,32,0,64.08c0,3.93,1.37,4.75,4.9,4.69,10-.18,20,.05,29.92-.16a28.51,28.51,0,0,0,8.71-1.64,10.78,10.78,0,0,0,7.53-9.6c.54-5.12-.26-10.08-5.35-12.3a46.57,46.57,0,0,0-13.78-3.4C50.59,104.31,44.77,104.74,38.57,104.74Z"></path><path class="cls-1" d="M901.69,95.06C901.6,128.68,876.26,155,841,156c-39,1.18-64.92-26-65.63-60-.71-34.33,27.21-61.53,62.6-61.75C874.43,34.05,901.47,59.83,901.69,95.06ZM875,95.5c.38-21.38-15-37.52-36.14-38-20.83-.47-36.85,15.49-37.19,37-.33,20.88,15.66,38,35.72,38.29C859.5,133.13,874.64,118.11,875,95.5Z"></path><path class="cls-1" d="M542.46,128.84c8.08,0,15.21,0,22.33,0,3.73,0,3-2.9,3-5,.07-14.92,0-29.85,0-44.77V73.35h21.81c.12,2,.32,3.92.32,5.84,0,14.59.14,29.18-.06,43.77-.05,4.32.92,6.33,5.81,6,6.45-.43,13-.1,20.16-.1V64.59h22.72v88.86H520.43V65.55h22Z"></path><path class="cls-1" d="M992.65,112l28.65,41.79h-13c-16.74,0-16.73,0-25.88-13.83-4.67-7.05-9.33-14.11-14.13-21.07-.87-1.27-2.35-2.93-3.63-3a160.25,160.25,0,0,0-17.94.06c-.81.05-2.05,2.68-2.09,4.13-.19,9.11-.1,18.23-.1,27.35v5.88H919.31V94c2.08,0,4,0,5.94,0,16,0,31.94.1,47.92-.06,11.64-.12,19.32-6.92,19.57-16.89.27-10.89-7-17.9-19.2-18.07-16.31-.22-32.61-.39-48.91-.15-4.8.07-6-1.51-5.7-5.93.34-5.26.08-10.56.08-16.3,1.89-.11,3.48-.28,5.07-.28,17.64,0,35.28-.17,52.91,0a48.83,48.83,0,0,1,27.24,8.35c19.15,12.92,20.94,52.1-6.64,64.94C996.26,110.27,994.94,110.91,992.65,112Z"></path><path class="cls-1" d="M389.5,153.32v-21.5c2.13-.13,4.2-.34,6.29-.37,15.13-.22,30.32.38,45.37-.79,22.26-1.74,33.11-21,30.64-40-2.65-20.37-16.05-31.55-36.71-31.72-6.61-.05-13.22,0-20.45,0V95.39H389.55V36.3c6.25,0,12.36-.16,18.46,0,14.59.48,29.46-.45,43.71,2.07,22,3.9,37.54,17.28,44.19,39.08s2,41.8-13.84,58.33c-11.65,12.15-26.73,17.62-43.54,17.88-15.31.23-30.62.08-45.94.07A22.43,22.43,0,0,1,389.5,153.32Z"></path><path class="cls-1" d="M140.18,34.75V43c0,20-.16,40.11.12,60.17.14,9.79,2.95,18.65,12.06,24.22,17,10.38,39.09-.11,39.92-19.79.94-22.5.46-45.07.34-67.6,0-4.22.77-6,5.43-5.67,6.42.42,12.9.11,19.65.11.16,1.69.4,3,.4,4.22,0,21.88.22,43.77,0,65.64-.19,15.48-4.56,29.38-17.35,39.5a44.2,44.2,0,0,1-21.83,9.06c-14.38,2-28.53,1.69-41.68-5.68-13.33-7.48-20.58-19.62-21.23-34-1.16-26-.32-52-.32-78.4Z"></path><path class="cls-1" d="M767.69,52.4l-16,18c-10.93-10-23.45-14.93-38-12.26-8.08,1.47-14.69,6-19.77,12.51-12,15.44-10.41,39.41,3.41,52.84,10.65,10.34,32.67,16.21,56.13-4.72l14.88,16.11c-17.23,22.7-58.43,30.07-86.52,8.09-26.81-21-30.27-63.66-6.84-89C698.58,28.34,744.22,27.37,767.69,52.4Z"></path><path class="cls-1" d="M290.86,36.57H315c.11,2,.29,3.93.29,5.85,0,27.67.15,55.34-.08,83,0,4.92,1.59,6.16,6.24,6.1,16.13-.23,32.27,0,48.4-.17,4.21-.06,5.57,1.3,5.27,5.38a118.47,118.47,0,0,0,0,12.92c.1,2.83-.65,4.28-3.84,4.27q-38.67-.15-77.35-.1c-2.29,0-3.75-.53-3.74-3.31q.14-56.42.18-112.83C290.33,37.4,290.59,37.12,290.86,36.57Z"></path><path class="cls-1" d="M514.12,65.31,502.81,48.13c7.62-5,14.94-9.77,22.29-14.51,16.45-10.61,33-21.11,49.34-31.87,3.51-2.31,5.92-2.37,9.61,0,21.9,14.11,44,27.86,66.08,41.75,1.68,1,3.29,2.2,5.49,3.68L644.43,64.68,613,44.88c-10-6.29-20-12.46-29.84-18.94-3-2-5.23-1.62-8.07.23-18.76,12.24-37.6,24.34-56.43,36.48C517.33,63.52,515.9,64.28,514.12,65.31Z"></path><path class="cls-1" d="M240.81,36.63c1.17-.12,2.13-.31,3.09-.31,7.13,0,14.25,0,21.73,0V153.45H240.81Z"></path></g></g></svg> 